HIERARCHY
ROOT Hips
{
     OFFSET 27.67420 98.70060 -19.99680
     CHANNELS 6 Xposition Yposition Zposition Zrotation Xrotation Yrotation
     JOINT Spine
     {
          OFFSET 0.00000 11.89050 0.00000
          CHANNELS 3 Zrotation Xrotation Yrotation
          JOINT Spine1
          {
               OFFSET 0.00000 25.65740 0.12766
               CHANNELS 3 Zrotation Xrotation Yrotation
               JOINT HEad
               {
                    OFFSET 0.00000 8.73416 0.01134
                    CHANNELS 3 Zrotation Xrotation Yrotation
                    End Site
                    {
                         OFFSET -0.29000 12.77420 2.51395
                    }
               }
               JOINT LeftShoulder1
               {
                    OFFSET 8.99000 -0.36225 -0.22000
                    CHANNELS 3 Zrotation Xrotation Yrotation
                    JOINT LeftArm
                    {
                         OFFSET 10.28270 -0.00338 0.32212
                         CHANNELS 3 Zrotation Xrotation Yrotation
                         JOINT LeftForeArm
                         {
                              OFFSET 32.76690 0.09914 -1.42434
                              CHANNELS 3 Zrotation Xrotation Yrotation
                              JOINT LeftHand
                              {
                                   OFFSET 27.56430 0.08536 1.02216
                                   CHANNELS 3 Zrotation Xrotation Yrotation
                                   End Site
                                   {
                                        OFFSET 16.74430 -0.60000 1.50291
                                   }
                              }
                         }
                    }
               }
               JOINT RightShoulder
               {
                    OFFSET -8.99000 -0.36225 -0.22000
                    CHANNELS 3 Zrotation Xrotation Yrotation
                    JOINT RightArm
                    {
                         OFFSET -10.28270 -0.00338 0.32212
                         CHANNELS 3 Zrotation Xrotation Yrotation
                         JOINT RightForeArm
                         {
                              OFFSET -32.89710 0.09914 -1.42434
                              CHANNELS 3 Zrotation Xrotation Yrotation
                              JOINT RightHand
                              {
                                   OFFSET -27.49210 0.08536 1.02216
                                   CHANNELS 3 Zrotation Xrotation Yrotation
                                   End Site
                                   {
                                        OFFSET -16.63120 -0.60000 1.50291
                                   }
                              }
                         }
                    }
               }
          }
     }
     JOINT LeftUpLeg
     {
          OFFSET 8.94580 -8.66707 0.10165
          CHANNELS 3 Zrotation Xrotation Yrotation
          JOINT LeftLeg
          {
               OFFSET 0.00000 -44.42270 1.37270
               CHANNELS 3 Zrotation Xrotation Yrotation
               JOINT LeftFoot
               {
                    OFFSET -0.25355 -42.09240 -1.46059
                    CHANNELS 3 Zrotation Xrotation Yrotation
                    JOINT LeftToes
                    {
                         OFFSET -0.04000 -4.41509 8.49910
                         CHANNELS 3 Zrotation Xrotation Yrotation
                         End Site
                         {
                              OFFSET 0.08000 -0.04745 9.77979
                         }
                    }
               }
          }
     }
     JOINT RightUpLeg
     {
          OFFSET -8.94580 -8.66707 0.10165
          CHANNELS 3 Zrotation Xrotation Yrotation
          JOINT RightLeg
          {
               OFFSET 0.00000 -44.42270 1.37270
               CHANNELS 3 Zrotation Xrotation Yrotation
               JOINT RightFoot
               {
                    OFFSET 0.25355 -42.09240 -1.46059
                    CHANNELS 3 Zrotation Xrotation Yrotation
                    JOINT RightToes
                    {
                         OFFSET 0.04000 -4.41509 8.49910
                         CHANNELS 3 Zrotation Xrotation Yrotation
                         End Site
                         {
                              OFFSET -0.08000 -0.13745 9.77979
                         }
                    }
               }
          }
     }
}
MOTION
Frames: 15
Frame Time: 0.01667
27.67420 98.70060 -19.99680 -7.00564 -4.06230 -32.53460 2.61238 5.69645 0.64479 2.64019 11.55220 1.36531 -9.96406 9.56807 11.69040 0.00000 0.00000 0.00000 -87.10670 -35.49040 -66.32080 2.84941 29.55560 -86.24920 40.00230 11.97430 10.23820 11.44130 0.92812 3.66859 74.94390 -11.23930 72.09980 6.72124 32.10850 95.77400 -5.76723 9.45793 5.85674 12.84090 -11.62040 9.45812 -3.87393 24.37640 14.85290 -1.65096 -0.38263 0.09168 -14.65840 -15.81900 -8.43271 -8.43277 -0.76440 -1.34459 0.52705 27.35730 -2.31710 19.91290 -24.43270 2.76310 11.60700 30.84390 -26.04470 
27.87930 98.73360 -19.88320 -7.07474 -3.96265 -32.64570 2.57266 5.71368 0.65109 2.66368 11.58090 1.36279 -10.14780 9.72174 11.78840 0.00000 0.00000 0.00000 -87.50430 -35.51520 -66.59610 2.67590 29.58480 -86.22570 40.05460 11.98550 10.26170 11.38110 0.92397 3.66014 75.04150 -11.25380 72.04830 7.00950 32.14380 95.61700 -5.78796 9.44956 6.00576 12.78950 -11.64380 9.66505 -3.74160 24.35990 14.72590 -1.67657 -0.31631 0.09388 -14.74440 -16.04890 -8.24879 -8.46945 -0.82722 -1.34014 0.49265 27.23330 -2.15986 19.89790 -24.07620 2.69634 11.60920 30.80680 -26.14790 
28.06560 98.77280 -19.78700 -7.14753 -3.83994 -32.74880 2.54583 5.71705 0.65909 2.69065 11.58350 1.36600 -10.25810 9.87067 11.93730 0.00000 0.00000 0.00000 -87.90850 -35.50610 -66.88260 2.53624 29.63570 -86.24370 40.12570 12.01270 10.32740 11.37200 0.92186 3.64852 75.15620 -11.26760 71.97850 7.29696 32.19410 95.49590 -5.84264 9.43929 6.12695 12.77300 -11.66570 9.82519 -3.62503 24.27720 14.67700 -1.71914 -0.12813 0.09829 -15.00020 -16.36330 -8.28490 -8.48833 -0.89822 -1.22593 0.51400 27.10030 -2.12494 20.09590 -23.83610 2.68278 11.82440 31.11130 -26.42020 
28.23140 98.82070 -19.71100 -7.23398 -3.69009 -32.84550 2.52921 5.71182 0.66771 2.72496 11.56990 1.37179 -10.31070 9.99418 12.08960 0.00000 0.00000 0.00000 -88.29500 -35.46240 -67.20020 2.40230 29.69740 -86.25440 40.24630 12.03760 10.37840 11.41570 0.92242 3.63766 75.26220 -11.26160 71.90780 7.48958 32.24170 95.44840 -5.94913 9.42659 6.19493 12.82520 -11.69120 9.92170 -3.58751 24.15550 14.71250 -1.72390 0.07299 0.10040 -15.24260 -16.62060 -8.38181 -8.47268 -0.96372 -1.01932 0.57632 26.91970 -2.21943 20.51510 -23.63500 2.70841 12.17470 31.63900 -26.76170 
28.37770 98.87460 -19.66060 -7.32462 -3.51844 -32.95510 2.51305 5.70690 0.67823 2.76605 11.55680 1.38061 -10.36380 10.07590 12.21380 0.00000 0.00000 0.00000 -88.67590 -35.38770 -67.58590 2.26919 29.74820 -86.22590 40.44280 12.04280 10.36040 11.44760 0.92578 3.65027 75.41940 -11.22980 71.86610 7.60409 32.29750 95.42240 -6.07393 9.41339 6.23449 12.95430 -11.72700 9.96630 -3.67693 24.02470 14.83020 -1.63364 0.18588 0.09523 -15.29300 -16.71100 -8.34507 -8.42758 -1.04128 -0.80646 0.63808 26.70290 -2.32373 21.06660 -23.43130 2.75145 12.54800 32.20700 -27.08620 
28.50500 98.92810 -19.64270 -7.40236 -3.33574 -33.09160 2.48307 5.70559 0.69719 2.81073 11.54950 1.40289 -10.44950 10.13030 12.29350 0.00000 0.00000 0.00000 -89.07030 -35.24280 -68.06560 2.18119 29.75700 -86.17760 40.71280 12.03590 10.29700 11.42190 0.93162 3.69936 75.69150 -11.19700 71.86890 7.73224 32.38520 95.33870 -6.15904 9.40391 6.27066 13.15680 -11.77490 9.95654 -3.93250 23.89350 15.06520 -1.42235 0.19538 0.08081 -15.11060 -16.62340 -8.10793 -8.37657 -1.15511 -0.67129 0.68939 26.49320 -2.30452 21.61490 -23.27180 2.80073 12.86870 32.69140 -27.35330 
28.61020 98.97500 -19.66370 -7.45601 -3.15146 -33.26030 2.42226 5.70378 0.73510 2.85480 11.53840 1.45698 -10.55150 10.21940 12.33310 0.00000 0.00000 0.00000 -89.50410 -34.96040 -68.64170 2.20739 29.71160 -86.17550 41.04670 12.05510 10.29630 11.35850 0.93860 3.76941 76.03290 -11.18030 71.90230 7.89176 32.48190 95.19730 -6.18556 9.40044 6.29270 13.43410 -11.83330 9.87126 -4.38289 23.75450 15.48150 -1.09779 0.15400 0.05840 -14.77170 -16.40500 -7.74943 -8.34500 -1.30965 -0.63247 0.76801 26.31780 -2.11234 22.04060 -23.24120 2.85663 13.06390 32.98910 -27.50120 
28.68830 99.01020 -19.72700 -7.47950 -2.97123 -33.46060 2.32129 5.69437 0.79562 2.89072 11.50870 1.55012 -10.64240 10.40010 12.37940 0.00000 0.00000 0.00000 -90.02010 -34.50160 -69.30260 2.37626 29.63310 -86.27370 41.45430 12.13700 10.45620 11.30060 0.94596 3.84080 76.32130 -11.16040 71.93790 8.00914 32.52320 95.07090 -6.19805 9.40000 6.27786 13.78030 -11.90530 9.71042 -5.00992 23.60440 16.09200 -0.71191 0.11982 0.03205 -14.37310 -16.10940 -7.38135 -8.34884 -1.49039 -0.64601 0.91386 26.18030 -1.77929 22.29560 -23.40690 2.92736 13.01290 32.93850 -27.40060 
28.73530 99.02840 -19.83360 -7.46762 -2.79437 -33.67890 2.19086 5.67135 0.86911 2.90654 11.45000 1.66732 -10.69910 10.63150 12.50320 0.00000 0.00000 0.00000 -90.66790 -33.84500 -70.05320 2.68092 29.54530 -86.47140 41.96800 12.30340 10.82390 11.27200 0.95539 3.91670 76.49860 -11.11570 71.95940 8.01884 32.48430 95.02290 -6.25507 9.39707 6.22994 14.17390 -12.00680 9.52164 -5.73447 23.45310 16.81040 -0.35622 0.14033 0.00782 -14.00780 -15.81050 -7.08259 -8.38842 -1.68653 -0.66510 1.11916 26.10100 -1.37295 22.40250 -23.81590 3.02663 12.57460 32.33840 -26.89370 
28.75130 99.02550 -19.98730 -7.42127 -2.61918 -33.87770 2.06393 5.63392 0.93831 2.88807 11.36500 1.78223 -10.68630 10.79150 12.72560 0.00000 0.00000 0.00000 -91.49200 -32.90780 -70.93680 3.15240 29.43250 -86.72830 42.63200 12.57940 11.44670 11.27970 0.96978 4.01441 76.63700 -11.06210 71.97220 7.90811 32.41210 95.07300 -6.36320 9.38990 6.17452 14.58620 -12.15840 9.37757 -6.45079 23.31450 17.49390 -0.11182 0.26405 -0.00945 -13.77930 -15.61400 -6.90835 -8.45347 -1.90018 -0.68923 1.33970 26.14620 -0.99038 22.35200 -24.48710 3.15609 11.67890 31.05090 -25.87670 
28.74150 99.00520 -20.19310 -7.36079 -2.45455 -33.99880 1.98920 5.58872 0.98593 2.82611 11.27230 1.87009 -10.58930 10.83730 12.98000 0.00000 0.00000 0.00000 -92.52420 -31.51300 -72.00840 3.86693 29.22560 -87.00790 43.46870 13.00100 12.39330 11.33710 0.99076 4.13969 76.85540 -11.03460 71.98960 7.70829 32.37040 95.20510 -6.47590 9.38170 6.13382 14.99130 -12.36260 9.33030 -7.06405 23.19430 18.00720 -0.01469 0.51592 -0.01766 -13.72640 -15.57340 -6.85983 -8.53188 -2.12170 -0.74429 1.54901 26.40870 -0.78874 22.03020 -25.39010 3.28773 10.45050 29.17560 -24.44370 
28.71260 98.97920 -20.45450 -7.32416 -2.31927 -33.97900 1.99904 5.54703 0.99893 2.72366 11.19760 1.90972 -10.45400 10.87660 13.16720 0.00000 0.00000 0.00000 -93.75160 -29.46170 -73.25470 4.86386 28.84140 -87.31520 44.45570 13.59930 13.71520 11.47650 1.01830 4.27879 77.21670 -11.04830 72.01630 7.48292 32.38900 95.37960 -6.55256 9.37567 6.11576 15.37430 -12.60720 9.37985 -7.51796 23.10350 18.25570 -0.06984 0.83431 -0.01544 -13.68070 -15.54810 -6.80249 -8.61313 -2.31416 -0.82891 1.76334 26.95960 -0.96937 21.31760 -26.43440 3.37404 9.23942 27.18300 -22.99490 
28.66720 98.95780 -20.77470 -7.34096 -2.22707 -33.77220 2.07877 5.51746 0.97041 2.58864 11.15730 1.88349 -10.32770 11.01870 13.23950 0.00000 0.00000 0.00000 -95.04610 -26.66350 -74.51710 6.06437 28.25800 -87.69770 45.57790 14.37030 15.36410 11.73100 1.05193 4.41352 77.73080 -11.08660 72.04640 7.28374 32.46500 95.56260 -6.59716 9.37214 6.10609 15.73380 -12.89030 9.48320 -7.80903 23.06410 18.20480 -0.27220 1.08884 -0.00137 -13.32520 -15.24310 -6.52461 -8.69306 -2.43343 -0.90933 2.01172 27.80720 -1.67390 20.23550 -27.46840 3.37671 8.41684 25.72920 -22.01730 
28.60090 98.93200 -21.16260 -7.40454 -2.17855 -33.36390 2.17427 5.50077 0.89260 2.41862 11.14770 1.77563 -10.19510 11.23060 13.23290 0.00000 0.00000 0.00000 -96.13580 -23.22160 -75.51540 7.25941 27.54700 -88.18520 46.85640 15.23940 17.11050 12.10310 1.09204 4.54290 78.41160 -11.11720 72.07640 7.11764 32.58730 95.74280 -6.63942 9.36992 6.07493 16.07390 -13.24330 9.59226 -7.96986 23.11220 17.89080 -0.62019 1.20398 0.02514 -12.50630 -14.47290 -5.97651 -8.78278 -2.47540 -0.95717 2.29553 28.93030 -2.86483 18.95750 -28.33740 3.29207 8.12531 25.17850 -21.72050 
28.51160 98.88270 -21.61600 -7.48264 -2.16422 -32.79080 2.24751 5.49029 0.75737 2.21369 11.15210 1.56988 -10.04640 11.40360 13.24620 0.00000 0.00000 0.00000 -96.69580 -19.41160 -75.98370 8.25684 26.83060 -88.76200 48.25970 16.07570 18.63170 12.52690 1.13901 4.69163 79.29240 -11.10210 72.11200 7.00834 32.75180 95.89510 -6.69551 9.36856 6.00374 16.38990 -13.68820 9.68756 -8.03265 23.25720 17.40470 -1.09000 1.23714 0.06160 -11.42310 -13.35670 -5.37960 -8.91328 -2.45013 -0.95301 2.59210 30.25370 -4.30839 17.71200 -28.91680 3.14635 8.28423 25.43910 -22.01460 
